<?xml version="1.0" encoding="UTF-8"?>
<svg id="Layer_2" data-name="Layer 2" xmlns="http://www.w3.org/2000/svg" viewBox="0 0 604.38 166.47">
  <defs>
    <style>
      .cls-1 {
        fill: #79c366;
      }

      .cls-2 {
        fill: #f15a29;
      }

      .cls-3, .cls-4 {
        fill: #3ec0c5;
      }

      .cls-4 {
        opacity: .85;
      }

      .cls-5 {
        fill: #fff;
      }
    </style>
  </defs>
  <g id="Layer_1-2" data-name="Layer 1">
    <g>
      <polygon class="cls-1" points="47.06 69.62 47.06 151.45 71.25 166.15 71.25 84.5 47.06 69.62"/>
      <polygon class="cls-3" points="95.37 69.62 95.37 151.45 71.18 166.15 71.18 84.5 95.37 69.62"/>
      <polygon class="cls-2" points="23.37 110.63 23.27 110.55 23.37 110.63 23.37 110.55 23.35 55.62 95.05 13.81 70.79 0 0 41.25 0 124.89 71.1 166.47 71.1 137.8 23.37 110.63"/>
      <polygon class="cls-4" points="94.95 13.81 70.77 27.86 118.87 55.73 118.9 55.67 118.9 55.75 95.23 69.62 95.23 97.5 118.9 83.84 118.9 110.73 95.23 124.57 95.23 151.51 141.59 124.64 141.59 40.8 94.95 13.81"/>
      <path class="cls-1" d="M81.31,65.93c0,5.64-4.59,10.23-10.23,10.23s-10.23-4.58-10.23-10.23,4.61-10.21,10.23-10.21,10.23,4.56,10.23,10.21Z"/>
    </g>
    <path class="cls-5" d="M212.59,111.41c-5.3,2.01-11.32,3.01-18.05,3.01-22.09,0-33.12-10.68-33.12-32.04,0-20.22,11.04-30.32,33.12-30.32,6.73,0,12.75,1,18.05,3.01v10.32c-5.3-2.29-11.05-3.44-17.2-3.44-14.77,0-22.15,6.82-22.15,20.44,0,14.75,7.38,22.14,22.15,22.14,6.15,0,11.89-1.13,17.2-3.44v10.32Z"/>
    <path class="cls-5" d="M220.55,113.78v-44.77h20.37c9.16,0,13.73,4.01,13.73,12,0,5.43-3.56,9.91-10.7,13.47l14.2,19.37h-10.47l-13.63-19.52v-3.81c7.94-1.35,11.9-4.43,11.9-9.24,0-3.3-1.85-4.95-5.57-4.95h-11.38v37.46h-8.46Z"/>
    <path class="cls-5" d="M292.77,69.01v7.16h-22.45v11.29h21.38v7.41h-21.47v11.75h22.97v7.22h-31.12v-44.84h30.69Z"/>
    <path class="cls-5" d="M300.9,113.85v-44.84h17.54c14.84,0,22.27,7.07,22.27,21.2,0,15.75-7.42,23.64-22.27,23.64h-17.54ZM318.45,106.63c9.31,0,13.96-5.47,13.96-16.42,0-9.32-4.65-13.98-13.96-13.98h-9.24v30.39h9.24Z"/>
    <path class="cls-5" d="M378.45,69.01v7.16h-22.44v11.29h21.37v7.41h-21.47v11.75h22.98v7.22h-31.12v-44.84h30.67Z"/>
    <path class="cls-5" d="M386.57,113.85v-44.84h8.32l23.66,32.66v-32.66h8v44.84h-8.31l-23.66-33.36v33.36h-8Z"/>
    <path class="cls-5" d="M471.68,111.96c-3.87,1.46-8.26,2.2-13.17,2.2-16.1,0-24.14-7.79-24.14-23.36,0-14.74,8.04-22.09,24.14-22.09,4.91,0,9.3.72,13.17,2.2v7.52c-3.87-1.68-8.04-2.52-12.54-2.52-10.77,0-16.13,4.97-16.13,14.9,0,10.76,5.36,16.15,16.13,16.15,4.5,0,8.68-.84,12.54-2.52v7.53Z"/>
    <path class="cls-5" d="M510.2,69.01v7.16h-22.43v11.29h21.37v7.41h-21.47v11.75h22.98v7.22h-31.14v-44.84h30.7Z"/>
    <path class="cls-5" d="M541.37,52.82v61.03h-8.94v-61.03h8.94Z"/>
    <path class="cls-5" d="M550.16,113.85v-61.05h23.9c20.2,0,30.32,9.61,30.32,28.85,0,21.46-10.12,32.2-30.32,32.2h-23.9ZM573.96,104.65c13.05,0,19.58-7.68,19.58-23.03,0-13.09-6.53-19.62-19.58-19.62h-12.98v42.66h12.98Z"/>
  </g>
</svg>
